<svg width="1440" height="1024" viewBox="0 0 1440 1024" fill="none" xmlns="http://www.w3.org/2000/svg">
<g clip-path="url(#clip0_122_326)">
<rect width="1440" height="1024" fill="#F9F2E5"/>
<g filter="url(#filter0_f_122_326)">
<path d="M545.527 -144.425C766.813 -342.47 6.27448 -378.928 -168.344 -241.29C-342.962 -103.651 -842.419 -605.925 -531.969 -230.763C-221.519 144.4 -427.311 419.792 -123.504 183.206C180.303 -53.3799 186.026 453.326 564.519 247.572C943.011 41.8184 324.241 53.6202 545.527 -144.425Z" fill="#45ABFF"/>
</g>
<g filter="url(#filter1_f_122_326)">
<path d="M1635.53 977.575C1856.81 779.53 1096.27 743.072 921.656 880.71C747.038 1018.35 247.581 516.075 558.031 891.237C868.481 1266.4 662.689 1541.79 966.496 1305.21C1270.3 1068.62 1276.03 1575.33 1654.52 1369.57C2033.01 1163.82 1414.24 1175.62 1635.53 977.575Z" fill="#45ABFF"/>
</g>
<path d="M1413.05 87.4862C1392.21 -300.421 901.186 338.961 323.888 294.447C-253.41 249.933 -283.519 1179.52 -14.2681 1048.29C254.983 917.065 1010.04 671.949 1398.58 897.987C1787.11 1124.03 1433.9 475.394 1413.05 87.4862Z" stroke="#0185B5" stroke-width="2"/>
</g>
<defs>
<filter id="filter0_f_122_326" x="-931.459" y="-672.848" width="1921.61" height="1270.79" filterUnits="userSpaceOnUse" color-interpolation-filters="sRGB">
<feFlood flood-opacity="0" result="BackgroundImageFix"/>
<feBlend mode="normal" in="SourceGraphic" in2="BackgroundImageFix" result="shape"/>
<feGaussianBlur stdDeviation="150" result="effect1_foregroundBlur_122_326"/>
</filter>
<filter id="filter1_f_122_326" x="158.541" y="449.152" width="1921.61" height="1270.79" filterUnits="userSpaceOnUse" color-interpolation-filters="sRGB">
<feFlood flood-opacity="0" result="BackgroundImageFix"/>
<feBlend mode="normal" in="SourceGraphic" in2="BackgroundImageFix" result="shape"/>
<feGaussianBlur stdDeviation="150" result="effect1_foregroundBlur_122_326"/>
</filter>
<clipPath id="clip0_122_326">
<rect width="1440" height="1024" fill="white"/>
</clipPath>
</defs>
</svg>
